<?xml version="1.0" encoding="UTF-8"?>
<!DOCTYPE svg PUBLIC "-//W3C//DTD SVG 1.1//EN" "http://www.w3.org/Graphics/SVG/1.1/DTD/svg11.dtd">
<!-- Creator: CorelDRAW -->
<svg xmlns="http://www.w3.org/2000/svg" xml:space="preserve" width="8in" height="8in" style="shape-rendering:geometricPrecision; text-rendering:geometricPrecision; image-rendering:optimizeQuality; fill-rule:evenodd; clip-rule:evenodd"
viewBox="0 0 8000 8000"
 xmlns:xlink="http://www.w3.org/1999/xlink">
 <defs>
  <style type="text/css">
   <![CDATA[
    .str0 {stroke:black}
    .fil0 {fill:black}
   ]]>
  </style>
 </defs>
 <g id="Layer_x0020_1">
  <metadata id="CorelCorpID_0Corel-Layer"/>
  <path class="fil0 str0" d="M783 1c-104,0 -171,29 -169,150 2,92 82,216 4,178 -138,-65 -336,-103 -465,-5 -44,33 -87,155 75,170 87,8 131,41 184,112 49,68 54,95 113,165 46,53 7,72 -6,126 -31,128 -78,249 -118,374 -51,165 10,136 1,181 -21,95 -122,292 -89,378 23,61 -5,76 26,143 51,112 -6,83 91,226 160,237 -84,104 386,710 61,79 187,252 259,308 78,59 66,129 165,179 86,43 210,174 280,240 215,205 330,342 645,331 82,-3 98,3 155,59 144,145 128,440 224,558 32,40 284,256 342,312 14,13 110,97 110,110 0,12 -97,9 -111,11 -112,18 -57,99 -123,95 -132,-9 -399,40 -516,73 -52,15 -202,58 -241,98 -47,48 -64,136 27,136 71,1 136,-7 212,-6 98,2 197,12 295,6 55,-1 109,-2 164,-2 55,6 58,50 -41,42 -119,-9 -212,128 -105,216 96,80 135,119 254,160 168,60 303,115 487,118 128,1 270,1 396,-13 165,-18 134,18 132,96 -4,212 4,76 -298,-3 -596,-156 -1153,294 -1136,924 16,645 608,1178 1250,1011 398,-104 649,-472 661,-875 7,-226 -68,-409 -67,-415 0,-15 54,-6 102,-33 92,-50 126,-110 241,-119 135,-11 272,-76 407,-105 168,-36 180,-35 313,-145 67,-54 210,-27 412,-148 137,-82 249,-219 246,-386 -2,-148 -128,-251 -229,-340 -103,-90 -177,-55 -124,-150 40,-73 -15,-121 22,-208 20,-46 45,-1 84,31 56,47 95,88 161,140 12,9 188,149 197,161 23,27 -6,73 -16,108 -84,298 -25,638 151,889 371,530 1102,602 1487,111 459,-586 75,-1573 -718,-1644 -207,-19 -414,36 -583,157 -51,37 -58,80 -101,42 -26,-22 -52,-44 -79,-66 -68,-61 -139,-119 -206,-181 -52,-47 -153,-130 -194,-182 -16,-21 19,-37 32,-48 126,-104 327,-176 490,-161 96,8 124,-18 200,-68 95,-61 137,-141 -4,-158 -296,-36 -533,25 -789,173 -124,72 -95,95 -186,-69 -52,-92 -125,-134 -189,-229 -60,-89 -105,-167 -225,-168 -69,0 -114,74 -122,-28 -7,-101 56,-87 64,-158 8,-81 110,-103 65,-183 -34,-59 -91,-31 -128,5 -81,78 -189,96 -112,219 26,41 26,79 15,126 -7,34 -61,18 -87,83 -19,47 -48,26 -87,28 -51,3 -100,-9 -151,-4 -70,8 -68,-46 -150,-19 -58,18 -54,58 -83,68 -36,12 -71,34 -108,41 -32,5 -40,26 -36,59 11,105 85,42 92,39 151,-62 131,33 226,-39 29,-22 45,-69 117,-57 42,7 34,64 99,69 76,6 58,68 125,120 52,40 26,74 -25,92 -112,41 -149,-8 -232,113 -67,100 -168,170 -256,250 -37,34 -225,201 -262,220 -73,36 -206,36 -284,33 -124,-5 -308,4 -433,25 -60,9 -56,-26 -108,-82 -69,-74 -137,-151 -210,-221 -37,-35 -200,-184 -224,-231 -11,-22 -14,-89 -39,-159 -38,-101 -107,-315 -90,-415 12,-63 47,-94 89,-138 71,-73 82,-49 186,27 42,32 158,134 201,151 134,53 126,23 271,127 128,93 239,205 348,319 81,86 111,75 149,169 20,48 45,124 111,110 93,-19 -32,-178 -29,-210 2,-21 100,-14 115,-15 157,-7 159,69 239,61 59,-5 83,-77 -26,-135 -133,-71 -138,-109 -275,-113 -122,-4 -108,-18 -160,-74 -105,-115 -96,-178 -310,-385 -51,-48 -220,-181 -210,-241 17,-112 349,52 348,-92 -1,-58 -79,-110 -113,-152 -70,-87 -107,-133 -196,-219 -132,-130 -295,-242 -490,-198 -118,26 -215,187 -258,190 -15,1 -73,-38 -99,-52 -191,-96 -214,-22 -302,-57 -113,-45 -300,-18 -325,-28 -16,-6 -14,-46 -19,-59 -48,-131 -53,-179 -166,-276 -60,-52 -128,-67 -141,-133 -16,-85 -59,-74 -79,-170 -25,-126 -98,-124 -154,-315 -18,-62 -12,-153 -55,-195 -50,-50 -36,-76 -65,-136 -50,-104 34,-408 -7,-543 -22,-74 6,-70 -32,-180 -34,-100 -6,-135 -37,-215 -56,-143 15,-131 -136,-435 -56,-114 -162,-264 -304,-263zm9 558c-21,2 3,79 4,132 2,93 -2,130 19,227 43,198 21,266 -26,458 -4,16 -68,171 -34,171 11,0 15,-43 26,-75 55,-161 103,-345 71,-515 -25,-129 -34,-131 -32,-266 0,-8 -8,-135 -28,-132zm-59 1207c-36,16 6,146 14,172 56,189 145,366 220,548 37,93 10,161 28,154 29,-11 19,-103 7,-134 -19,-54 -47,-106 -69,-158 -28,-67 -164,-407 -179,-464 -16,-62 -1,-126 -21,-118zm2210 1401c-17,15 50,42 58,47 139,93 216,192 257,223 14,10 38,5 -42,-71 -23,-21 -241,-227 -273,-199zm2789 1619c-5,2 -45,39 12,86 113,93 164,159 302,264 15,11 71,66 89,54 44,-29 -38,-70 -56,-85 -101,-87 -222,-205 -317,-304 -7,-6 -19,-21 -30,-15zm1113 352c-102,10 -201,38 -290,90 -70,40 -2,71 32,107 51,53 112,93 159,151 81,101 78,97 176,68 87,-25 212,106 225,148 17,54 -29,35 30,112 98,130 -28,326 -202,339 -147,11 -132,-38 -184,15 -70,72 -157,13 -223,-37 -173,-131 -1,-215 -19,-269 -8,-26 -77,-73 -98,-93 -22,-21 -133,-130 -157,-138 -39,-13 -35,69 -37,90 -69,718 763,1112 1180,633 419,-482 -9,-1269 -592,-1216zm-438 344c78,70 156,140 234,210 12,14 34,45 57,40 60,-13 -32,-68 -76,-107 -72,-63 -137,-133 -205,-200 -26,-25 -42,28 -10,57zm-906 284c-9,2 -57,49 -33,110 5,12 9,24 14,36 12,33 30,53 57,7 20,-34 33,-86 8,-120 -9,-13 -28,-36 -46,-33zm-135 183c-39,4 -27,86 11,82 37,-4 18,-85 -11,-82zm-1341 25c-24,13 -70,212 -22,239 14,8 86,-29 101,-35 46,-18 91,-38 98,-95 5,-41 -74,-55 -115,-85 -14,-11 -43,-34 -62,-24zm-787 335c-196,29 -337,95 -453,258 -307,427 63,1135 677,1056 312,-39 525,-318 519,-625 -2,-142 0,-95 -66,-29 -49,49 -84,81 -130,135 -49,57 -212,185 -283,251 -121,112 -227,161 -383,69 -43,-26 -136,-95 -162,-141 -12,-21 -68,-136 -73,-155 -59,-196 71,-403 245,-490 113,-55 345,-106 401,-165 9,-10 81,-66 90,-67 16,-2 35,2 -39,-33 -104,-50 -228,-80 -343,-64z"/>
 </g>
</svg>
